<svg width="24" height="22" viewBox="0 0 24 22" fill="none" xmlns="http://www.w3.org/2000/svg">
<path d="M12 13.7501C9.79 13.7501 8 12.1092 8 10.0834C8 8.05758 9.79 6.41675 12 6.41675C14.21 6.41675 16 8.05758 16 10.0834C16 12.1092 14.21 13.7501 12 13.7501ZM20.94 11.0001C20.7135 12.859 19.8042 14.592 18.3613 15.9146C16.9185 17.2372 15.0279 18.0708 13 18.2784V19.2501C13 19.7542 12.55 20.1667 12 20.1667C11.45 20.1667 11 19.7542 11 19.2501V18.2784C8.97212 18.0708 7.08154 17.2372 5.63869 15.9146C4.19585 14.592 3.28651 12.859 3.06 11.0001H2C1.45 11.0001 1 10.5876 1 10.0834C1 9.57925 1.45 9.16675 2 9.16675H3.06C3.28651 7.30786 4.19585 5.57482 5.63869 4.25222C7.08154 2.92961 8.97212 2.09605 11 1.88841V0.916748C11 0.412582 11.45 8.2016e-05 12 8.2016e-05C12.55 8.2016e-05 13 0.412582 13 0.916748V1.88841C15.0279 2.09605 16.9185 2.92961 18.3613 4.25222C19.8042 5.57482 20.7135 7.30786 20.94 9.16675H22C22.55 9.16675 23 9.57925 23 10.0834C23 10.5876 22.55 11.0001 22 11.0001H20.94ZM12 3.66675C8.13 3.66675 5 6.53592 5 10.0834C5 13.6309 8.13 16.5001 12 16.5001C15.87 16.5001 19 13.6309 19 10.0834C19 6.53592 15.87 3.66675 12 3.66675Z" fill="#EE2211"/>
</svg>
