<svg width="24" height="22" viewBox="0 0 24 22" fill="none" xmlns="http://www.w3.org/2000/svg">
<path d="M19.4599 9.16661C19.3613 9.30024 19.3029 9.45537 19.2906 9.61632C19.2783 9.77728 19.3126 9.93835 19.3899 10.0833C19.6379 10.614 19.8129 11.1714 19.9099 11.7424C20.1674 13.2184 19.9266 14.7312 19.2199 16.0783C19.1341 16.226 19.0058 16.3494 18.8489 16.4351C18.692 16.5207 18.5125 16.5653 18.3299 16.5641H5.67994C5.49631 16.5645 5.31613 16.5185 5.15913 16.4311C5.00214 16.3438 4.87441 16.2186 4.78994 16.0691C4.14982 14.8788 3.87408 13.5515 3.99213 12.2288C4.11017 10.9061 4.61756 9.63755 5.46022 8.5584C6.30288 7.47924 7.44922 6.62993 8.77702 6.10099C10.1048 5.57206 11.5643 5.38334 12.9999 5.55494C13.7263 5.6332 14.4368 5.80606 15.1099 6.06828C15.268 6.1392 15.4438 6.17062 15.6193 6.15935C15.7949 6.14808 15.9642 6.09453 16.1099 6.00411C16.2618 5.91239 16.3835 5.78444 16.462 5.63403C16.5404 5.48362 16.5727 5.31644 16.5552 5.1505C16.5377 4.98455 16.4712 4.82612 16.3628 4.69225C16.2543 4.55838 16.1082 4.45415 15.9399 4.39078C14.0081 3.63146 11.8644 3.44944 9.81335 3.87057C7.76226 4.29169 5.90808 5.29455 4.5142 6.73669C3.12031 8.17883 2.25759 9.98692 2.04859 11.9041C1.83959 13.8213 2.29493 15.7501 3.34994 17.4166C3.52445 17.6937 3.77503 17.9241 4.07677 18.0849C4.37852 18.2457 4.72092 18.3313 5.06994 18.3333H18.9199C19.2724 18.3346 19.6189 18.2505 19.9244 18.0895C20.23 17.9285 20.4837 17.6964 20.6599 17.4166C21.4323 16.1896 21.884 14.8152 21.9794 13.4013C22.0748 11.9873 21.8114 10.5724 21.2099 9.26744C21.1338 9.11872 21.0154 8.9915 20.8672 8.8991C20.719 8.8067 20.5464 8.75251 20.3675 8.7422C20.1886 8.7319 20.01 8.76585 19.8503 8.84051C19.6907 8.91518 19.5558 9.0278 19.4599 9.16661Z" fill="#EE2211"/>
<path d="M10.59 11.5409C10.2147 11.8849 10.0039 12.3515 10.0039 12.838C10.0039 13.0788 10.0557 13.3174 10.1562 13.5399C10.2568 13.7625 10.4042 13.9647 10.59 14.135C10.7758 14.3054 10.9964 14.4405 11.2392 14.5327C11.482 14.6249 11.7422 14.6723 12.005 14.6723C12.5357 14.6723 13.0447 14.479 13.42 14.135L19.08 6.35254L10.59 11.5409Z" fill="#EE2211"/>
</svg>
